<?xml version="1.0" encoding="UTF-8"?>
<svg width="70px" height="70px" id="Layer_1" data-name="Layer 1" xmlns="http://www.w3.org/2000/svg" xmlns:xlink="http://www.w3.org/1999/xlink" viewBox="0 0 826.6 715.59">
  <defs>
    <style>
      .cls-1, .cls-2, .cls-3 {
        fill: #ddd;
      }

      .cls-4 {
        fill: #fff;
      }

      .cls-4, .cls-2, .cls-5, .cls-6 {
        stroke: #202020;
      }

      .cls-4, .cls-2, .cls-5, .cls-6, .cls-7 {
        stroke-linecap: round;
        stroke-linejoin: round;
        stroke-width: 27.29px;
      }

      .cls-8, .cls-6 {
        fill: #868686;
      }

      .cls-3, .cls-9, .cls-10, .cls-11 {
        stroke-width: 0px;
      }

      .cls-12 {
        clip-path: url(#clippath-1);
      }

      .cls-9 {
        fill: #b3b3b3;
      }

      .cls-5, .cls-7 {
        fill: none;
      }

      .cls-10 {
        fill: #202020;
      }

      .cls-13 {
        clip-path: url(#clippath);
      }

      .cls-11 {
        fill: #404040;
      }

      .cls-7 {
        stroke: #000;
      }
    </style>
    <clipPath id="clippath">
      <path class="cls-6" d="m774.49,406.6c0,56.29-45.64,101.92-101.93,101.92-5.12,0-10.16-.38-15.07-1.1-50.64,89.7-87.87,169.07-301.42,149.81,3.76.23,7.52.3,11.27.2,26.48-.57,52.39-8.9,73.93-24.49.43-.3.85-.61,1.27-.93.59-.43,1.19-.88,1.77-1.33.46-.36.91-.71,1.38-1.08,2.45-1.96,4.81-3.95,7.03-6,.35-.31.69-.63,1.04-.96,2.07-1.95,4.03-3.92,5.89-5.93.63-.67,1.22-1.33,1.83-2,1.65-1.87,3.23-3.76,4.72-5.69.35-.45.71-.9,1.03-1.34,3.54-4.66,6.63-9.48,9.31-14.4.3-.55.61-1.09.88-1.64.43-.82.85-1.64,1.27-2.47.24-.48.48-.98.7-1.46.71-1.46,1.38-2.92,2.01-4.4.24-.56.48-1.12.71-1.69,2.1-5.05,3.83-10.17,5.23-15.34.1-.32.18-.64.26-.96.14-.52.27-1.03.4-1.56.16-.63.3-1.24.45-1.86.21-.84.4-1.69.57-2.54.13-.53.25-1.06.34-1.59.1-.43.19-.88.27-1.32.26-1.34.5-2.68.73-4.01.05-.29.09-.58.14-.87.13-.8.26-1.6.37-2.42.02-.05.02-.11.03-.18.12-.75.21-1.5.31-2.26.11-.82.21-1.62.29-2.44.08-.74.16-1.46.24-2.2.24-2.5.43-4.99.56-7.49.05-.81.08-1.61.11-2.4.02-.14.02-.27.02-.4.03-.67.05-1.33.06-2,.26-9.79-.29-19.36-1.35-28.41-4.06-34.8,5.3-69.91,27.03-97.39,14.74-18.6,23.1-42.49,21.83-68.35-2.52-51.06-43.24-92.82-94.22-96.5-42.29-3.05-79.61,19.71-97.77,54.16-10.58-45.01-50.98-78.51-99.21-78.51-19.3,0-37.32,5.36-52.7,14.66,43.35-87.18,133.32-147.08,237.29-147.08,5.35,0,10.64.16,15.91.46,10.88.64,21.59,1.96,32.07,3.87,14.99,2.74,30.06,5.26,45.28,5.7,43.13,1.25,59.13-33.75,34.13-78.75,1.21,1.19,92,2,61,103,0,0,52-34,104,12,0,0-34.03,2.57-64.46,23.81-10.11,7.06-15.41,19.19-14.01,31.44h0c.63,5.47,2.61,10.68,5.7,15.25,11.71,17.34,21.42,36.14,28.81,56.06,0,.01.02.03.02.05,6.14,16.59,10.67,33.98,13.4,51.96,45.38,10.3,79.25,50.9,79.25,99.39Z"/>
    </clipPath>
    <clipPath id="clippath-1">
      <path class="cls-2" d="m518.18,403.98c-21.73,27.48-31.09,62.59-27.03,97.38,1.06,9.05,1.61,18.62,1.35,28.41-.02.67-.03,1.33-.06,2.01,0,.13,0,.26-.02.4-.03.79-.06,1.59-.11,2.39-.13,2.5-.32,4.99-.56,7.5-.08.74-.16,1.46-.24,2.2-.08.82-.18,1.62-.29,2.44-.1.75-.19,1.51-.3,2.26-.02.06-.02.13-.03.18-.11.82-.24,1.62-.37,2.42l-.14.87c-.22,1.33-.47,2.66-.72,4.01-.08.43-.18.88-.27,1.32-.1.53-.21,1.06-.34,1.59-.18.85-.37,1.7-.58,2.54-.14.63-.29,1.24-.45,1.86-.13.53-.26,1.04-.4,1.56-.08.32-.16.64-.26.96-1.4,5.17-3.13,10.29-5.23,15.35-.22.56-.47,1.12-.71,1.69-.63,1.48-1.3,2.94-2.01,4.4-.22.48-.47.98-.71,1.46-.42.83-.83,1.65-1.27,2.47-.27.55-.58,1.09-.88,1.64-2.68,4.93-5.76,9.74-9.31,14.4-.34.45-.67.9-1.03,1.35-1.49,1.93-3.07,3.82-4.72,5.68-.61.67-1.2,1.33-1.83,2.01-1.86,2.01-3.82,3.98-5.89,5.92-.35.34-.69.66-1.04.96-2.22,2.05-4.57,4.04-7.03,6-.47.37-.91.72-1.38,1.08-.58.45-1.17.9-1.77,1.33-.42.32-.83.63-1.27.93-21.54,15.59-47.45,23.92-73.93,24.49-5.6.14-11.22-.08-16.82-.64-2.25-.22-4.48-.48-6.69-.75h-.02c-112.36-13.58-180.37-77.53-195.86-102.52-16.48-26.58-25.28-56.32-16.26-86.29,14.38-47.79,70.95-52.67,83.61-54.22-39.84-13.85-68.43-51.73-68.43-96.29,0-37.01,19.73-69.41,49.23-87.27,15.38-9.29,33.4-14.66,52.7-14.66,48.24,0,88.64,33.5,99.21,78.51,18.15-34.45,55.47-57.21,97.77-54.16,50.98,3.68,91.7,45.44,94.22,96.5,1.27,25.86-7.09,49.74-21.83,68.35Z"/>
    </clipPath>
  </defs>
  <g>
    <path class="cls-8" d="m774.49,406.6c0,56.29-45.64,101.92-101.93,101.92-5.12,0-10.16-.38-15.07-1.1-50.64,89.7-87.87,169.07-301.42,149.81,3.76.23,7.52.3,11.27.2,26.48-.57,52.39-8.9,73.93-24.49.43-.3.85-.61,1.27-.93.59-.43,1.19-.88,1.77-1.33.46-.36.91-.71,1.38-1.08,2.45-1.96,4.81-3.95,7.03-6,.35-.31.69-.63,1.04-.96,2.07-1.95,4.03-3.92,5.89-5.93.63-.67,1.22-1.33,1.83-2,1.65-1.87,3.23-3.76,4.72-5.69.35-.45.71-.9,1.03-1.34,3.54-4.66,6.63-9.48,9.31-14.4.3-.55.61-1.09.88-1.64.43-.82.85-1.64,1.27-2.47.24-.48.48-.98.7-1.46.71-1.46,1.38-2.92,2.01-4.4.24-.56.48-1.12.71-1.69,2.1-5.05,3.83-10.17,5.23-15.34.1-.32.18-.64.26-.96.14-.52.27-1.03.4-1.56.16-.63.3-1.24.45-1.86.21-.84.4-1.69.57-2.54.13-.53.25-1.06.34-1.59.1-.43.19-.88.27-1.32.26-1.34.5-2.68.73-4.01.05-.29.09-.58.14-.87.13-.8.26-1.6.37-2.42.02-.05.02-.11.03-.18.12-.75.21-1.5.31-2.26.11-.82.21-1.62.29-2.44.08-.74.16-1.46.24-2.2.24-2.5.43-4.99.56-7.49.05-.81.08-1.61.11-2.4.02-.14.02-.27.02-.4.03-.67.05-1.33.06-2,.26-9.79-.29-19.36-1.35-28.41-4.06-34.8,5.3-69.91,27.03-97.39,14.74-18.6,23.1-42.49,21.83-68.35-2.52-51.06-43.24-92.82-94.22-96.5-42.29-3.05-79.61,19.71-97.77,54.16-10.58-45.01-50.98-78.51-99.21-78.51-19.3,0-37.32,5.36-52.7,14.66,43.35-87.18,133.32-147.08,237.29-147.08,5.35,0,10.64.16,15.91.46,10.88.64,21.59,1.96,32.07,3.87,14.99,2.74,30.06,5.26,45.28,5.7,43.13,1.25,59.13-33.75,34.13-78.75,1.21,1.19,92,2,61,103,0,0,52-34,104,12,0,0-34.03,2.57-64.46,23.81-10.11,7.06-15.41,19.19-14.01,31.44h0c.63,5.47,2.61,10.68,5.7,15.25,11.71,17.34,21.42,36.14,28.81,56.06,0,.01.02.03.02.05,6.14,16.59,10.67,33.98,13.4,51.96,45.38,10.3,79.25,50.9,79.25,99.39Z"/>
    <g class="cls-13">
      <path class="cls-11" d="m620.28,342.14s50-37,13-158l84.22-13.5,40.13,43.34-1.61,57.79-44.96,36.12h-56.64l-19.89,14.1"/>
      <path class="cls-11" d="m320.23,606.44c97.91,48.15,258.43,8.03,309.8-131.62l65.05,99.25-87.52,121.31-150.88,20.22-109.15-22.47s-125.2-134.83-27.29-86.68Z"/>
      <path class="cls-11" d="m629.53,335.97s68.01-13.75,87.24,47.35c19.19,61-54.64,96.31-86.75,91.49l16.05,105.94,174.79-197.43,5.74-89.09-84.22-28.09-78.65,11.24-34.2,58.59Z"/>
    </g>
    <path class="cls-5" d="m774.49,406.6c0,56.29-45.64,101.92-101.93,101.92-5.12,0-10.16-.38-15.07-1.1-50.64,89.7-87.87,169.07-301.42,149.81,3.76.23,7.52.3,11.27.2,26.48-.57,52.39-8.9,73.93-24.49.43-.3.85-.61,1.27-.93.59-.43,1.19-.88,1.77-1.33.46-.36.91-.71,1.38-1.08,2.45-1.96,4.81-3.95,7.03-6,.35-.31.69-.63,1.04-.96,2.07-1.95,4.03-3.92,5.89-5.93.63-.67,1.22-1.33,1.83-2,1.65-1.87,3.23-3.76,4.72-5.69.35-.45.71-.9,1.03-1.34,3.54-4.66,6.63-9.48,9.31-14.4.3-.55.61-1.09.88-1.64.43-.82.85-1.64,1.27-2.47.24-.48.48-.98.7-1.46.71-1.46,1.38-2.92,2.01-4.4.24-.56.48-1.12.71-1.69,2.1-5.05,3.83-10.17,5.23-15.34.1-.32.18-.64.26-.96.14-.52.27-1.03.4-1.56.16-.63.3-1.24.45-1.86.21-.84.4-1.69.57-2.54.13-.53.25-1.06.34-1.59.1-.43.19-.88.27-1.32.26-1.34.5-2.68.73-4.01.05-.29.09-.58.14-.87.13-.8.26-1.6.37-2.42.02-.05.02-.11.03-.18.12-.75.21-1.5.31-2.26.11-.82.21-1.62.29-2.44.08-.74.16-1.46.24-2.2.24-2.5.43-4.99.56-7.49.05-.81.08-1.61.11-2.4.02-.14.02-.27.02-.4.03-.67.05-1.33.06-2,.26-9.79-.29-19.36-1.35-28.41-4.06-34.8,5.3-69.91,27.03-97.39,14.74-18.6,23.1-42.49,21.83-68.35-2.52-51.06-43.24-92.82-94.22-96.5-42.29-3.05-79.61,19.71-97.77,54.16-10.58-45.01-50.98-78.51-99.21-78.51-19.3,0-37.32,5.36-52.7,14.66,43.35-87.18,133.32-147.08,237.29-147.08,5.35,0,10.64.16,15.91.46,10.88.64,21.59,1.96,32.07,3.87,14.99,2.74,30.06,5.26,45.28,5.7,43.13,1.25,59.13-33.75,34.13-78.75,1.21,1.19,92,2,61,103,0,0,52-34,104,12,0,0-34.03,2.57-64.46,23.81-10.11,7.06-15.41,19.19-14.01,31.44h0c.63,5.47,2.61,10.68,5.7,15.25,11.71,17.34,21.42,36.14,28.81,56.06,0,.01.02.03.02.05,6.14,16.59,10.67,33.98,13.4,51.96,45.38,10.3,79.25,50.9,79.25,99.39Z"/>
  </g>
  <path class="cls-6" d="m343.82,656.04c4.15.43,8.23.83,12.25,1.19-1.85-.11-3.7-.25-5.55-.44-2.25-.22-4.48-.48-6.7-.75Z"/>
  <line class="cls-7" x1="215.32" y1="413.01" x2="215.3" y2="413.01"/>
  <line class="cls-7" x1="215.32" y1="413.01" x2="215.3" y2="413.01"/>
  <path class="cls-4" d="m622.69,346.41c25.55-45.75,72.55-39.2,72.55-39.2"/>
  <g>
    <path class="cls-1" d="m518.18,403.98c-21.73,27.48-31.09,62.59-27.03,97.38,1.06,9.05,1.61,18.62,1.35,28.41-.02.67-.03,1.33-.06,2.01,0,.13,0,.26-.02.4-.03.79-.06,1.59-.11,2.39-.13,2.5-.32,4.99-.56,7.5-.08.74-.16,1.46-.24,2.2-.08.82-.18,1.62-.29,2.44-.1.75-.19,1.51-.3,2.26-.02.06-.02.13-.03.18-.11.82-.24,1.62-.37,2.42l-.14.87c-.22,1.33-.47,2.66-.72,4.01-.08.43-.18.88-.27,1.32-.1.53-.21,1.06-.34,1.59-.18.85-.37,1.7-.58,2.54-.14.63-.29,1.24-.45,1.86-.13.53-.26,1.04-.4,1.56-.08.32-.16.64-.26.96-1.4,5.17-3.13,10.29-5.23,15.35-.22.56-.47,1.12-.71,1.69-.63,1.48-1.3,2.94-2.01,4.4-.22.48-.47.98-.71,1.46-.42.83-.83,1.65-1.27,2.47-.27.55-.58,1.09-.88,1.64-2.68,4.93-5.76,9.74-9.31,14.4-.34.45-.67.9-1.03,1.35-1.49,1.93-3.07,3.82-4.72,5.68-.61.67-1.2,1.33-1.83,2.01-1.86,2.01-3.82,3.98-5.89,5.92-.35.34-.69.66-1.04.96-2.22,2.05-4.57,4.04-7.03,6-.47.37-.91.72-1.38,1.08-.58.45-1.17.9-1.77,1.33-.42.32-.83.63-1.27.93-21.54,15.59-47.45,23.92-73.93,24.49-5.6.14-11.22-.08-16.82-.64-2.25-.22-4.48-.48-6.69-.75h-.02c-112.36-13.58-180.37-77.53-195.86-102.52-16.48-26.58-25.28-56.32-16.26-86.29,14.38-47.79,70.95-52.67,83.61-54.22-39.84-13.85-68.43-51.73-68.43-96.29,0-37.01,19.73-69.41,49.23-87.27,15.38-9.29,33.4-14.66,52.7-14.66,48.24,0,88.64,33.5,99.21,78.51,18.15-34.45,55.47-57.21,97.77-54.16,50.98,3.68,91.7,45.44,94.22,96.5,1.27,25.86-7.09,49.74-21.83,68.35Z"/>
    <g class="cls-12">
      <path class="cls-9" d="m175.8,409.01s-70.66,226.33,309.5,204.57l-75.98,92.27s-319.43-11.92-322.64-15.13S0,549.46,0,549.46l48.15-130.02,127.64-10.43Z"/>
    </g>
    <path class="cls-5" d="m518.18,403.98c-21.73,27.48-31.09,62.59-27.03,97.38,1.06,9.05,1.61,18.62,1.35,28.41-.02.67-.03,1.33-.06,2.01,0,.13,0,.26-.02.4-.03.79-.06,1.59-.11,2.39-.13,2.5-.32,4.99-.56,7.5-.08.74-.16,1.46-.24,2.2-.08.82-.18,1.62-.29,2.44-.1.75-.19,1.51-.3,2.26-.02.06-.02.13-.03.18-.11.82-.24,1.62-.37,2.42l-.14.87c-.22,1.33-.47,2.66-.72,4.01-.08.43-.18.88-.27,1.32-.1.53-.21,1.06-.34,1.59-.18.85-.37,1.7-.58,2.54-.14.63-.29,1.24-.45,1.86-.13.53-.26,1.04-.4,1.56-.08.32-.16.64-.26.96-1.4,5.17-3.13,10.29-5.23,15.35-.22.56-.47,1.12-.71,1.69-.63,1.48-1.3,2.94-2.01,4.4-.22.48-.47.98-.71,1.46-.42.83-.83,1.65-1.27,2.47-.27.55-.58,1.09-.88,1.64-2.68,4.93-5.76,9.74-9.31,14.4-.34.45-.67.9-1.03,1.35-1.49,1.93-3.07,3.82-4.72,5.68-.61.67-1.2,1.33-1.83,2.01-1.86,2.01-3.82,3.98-5.89,5.92-.35.34-.69.66-1.04.96-2.22,2.05-4.57,4.04-7.03,6-.47.37-.91.72-1.38,1.08-.58.45-1.17.9-1.77,1.33-.42.32-.83.63-1.27.93-21.54,15.59-47.45,23.92-73.93,24.49-5.6.14-11.22-.08-16.82-.64-2.25-.22-4.48-.48-6.69-.75h-.02c-112.36-13.58-180.37-77.53-195.86-102.52-16.48-26.58-25.28-56.32-16.26-86.29,14.38-47.79,70.95-52.67,83.61-54.22-39.84-13.85-68.43-51.73-68.43-96.29,0-37.01,19.73-69.41,49.23-87.27,15.38-9.29,33.4-14.66,52.7-14.66,48.24,0,88.64,33.5,99.21,78.51,18.15-34.45,55.47-57.21,97.77-54.16,50.98,3.68,91.7,45.44,94.22,96.5,1.27,25.86-7.09,49.74-21.83,68.35Z"/>
  </g>
  <circle class="cls-10" cx="248" cy="312.7" r="41.73"/>
  <circle class="cls-10" cx="430.98" cy="346.41" r="41.73"/>
  <circle class="cls-3" cx="409.32" cy="335.97" r="12.04"/>
  <circle class="cls-3" cx="435" cy="323.13" r="8.83"/>
  <circle class="cls-3" cx="231.14" cy="307.08" r="12.04"/>
  <circle class="cls-3" cx="256.83" cy="294.24" r="8.83"/>
  <circle class="cls-10" cx="344.31" cy="409.01" r="16.05"/>
  <circle class="cls-10" cx="288.13" cy="399.38" r="16.05"/>
  <path class="cls-2" d="m215.3,413.01s17.45,123.61,202.04,70.64"/>
  <path class="cls-4" d="m700.28,383.33s13.23,36.98-13.66,60.62"/>
</svg>